<svg width="322" height="331" viewBox="0 0 322 331" fill="none" xmlns="http://www.w3.org/2000/svg">
<path d="M251.227 40.9651L123.037 96.1451C121.591 96.7659 120.283 97.6695 119.191 98.8029C118.099 99.9363 117.244 101.277 116.677 102.745L55.7973 260.255C55.1291 261.982 54.8755 263.841 55.057 265.684C55.2384 267.526 55.8499 269.301 56.8421 270.864C57.8343 272.427 59.1796 273.736 60.7697 274.684C62.3598 275.633 64.1503 276.195 65.9973 276.325L255.067 289.855C256.688 289.969 258.315 289.748 259.846 289.206C261.378 288.664 262.782 287.813 263.97 286.705C265.159 285.597 266.107 284.257 266.755 282.767C267.403 281.277 267.737 279.67 267.737 278.045V51.8351C267.738 49.8752 267.252 47.9457 266.323 46.2202C265.393 44.4946 264.05 43.027 262.413 41.9493C260.776 40.8715 258.897 40.2173 256.944 40.0455C254.992 39.8737 253.027 40.1897 251.227 40.9651V40.9651ZM203.017 236.025C203.018 237.772 202.631 239.497 201.885 241.077C201.139 242.657 200.053 244.052 198.704 245.162C197.355 246.272 195.777 247.069 194.083 247.497C192.389 247.925 190.621 247.972 188.907 247.635L155.487 241.105C152.792 240.579 150.364 239.132 148.618 237.012C146.872 234.892 145.917 232.231 145.917 229.485V130.725C145.926 128.343 146.653 126.019 148.004 124.056C149.354 122.094 151.265 120.584 153.487 119.725L186.897 106.605C188.69 105.9 190.628 105.643 192.543 105.858C194.458 106.072 196.291 106.751 197.884 107.835C199.477 108.919 200.781 110.376 201.682 112.078C202.584 113.781 203.056 115.678 203.057 117.605L203.017 236.025Z" fill="#14BDC1"/>
</svg>
